<svg xmlns="http://www.w3.org/2000/svg" width="900" height="1200" viewBox="0 0 900 1200" role="img" aria-labelledby="title desc">
  <title id="title">Html Preview opens HTML from Files</title>
  <desc id="desc">A product preview showing HTML files moving from Files and iCloud Drive into Html Preview.</desc>
  <rect width="900" height="1200" fill="#f8fafc"/>
  <rect x="76" y="92" width="748" height="1016" rx="44" fill="#ffffff" stroke="#d8e0ea" stroke-width="4"/>
  <text x="126" y="170" fill="#16181d" font-family="-apple-system,BlinkMacSystemFont,Segoe UI,sans-serif" font-size="42" font-weight="850">Open HTML from Files</text>
  <text x="126" y="214" fill="#5d6674" font-family="-apple-system,BlinkMacSystemFont,Segoe UI,sans-serif" font-size="24">Files, iCloud Drive, AirDrop, Mail</text>
  <rect x="126" y="284" width="278" height="624" rx="34" fill="#111418"/>
  <rect x="146" y="322" width="238" height="548" rx="24" fill="#ffffff"/>
  <text x="174" y="376" fill="#16181d" font-family="-apple-system,BlinkMacSystemFont,Segoe UI,sans-serif" font-size="26" font-weight="850">Files</text>
  <rect x="174" y="424" width="182" height="52" rx="12" fill="#f1f5f9"/>
  <rect x="174" y="500" width="182" height="52" rx="12" fill="#fff4ea"/>
  <rect x="174" y="576" width="182" height="52" rx="12" fill="#f1f5f9"/>
  <text x="198" y="457" fill="#5d6674" font-family="-apple-system,BlinkMacSystemFont,Segoe UI,sans-serif" font-size="18">brief.pdf</text>
  <text x="198" y="533" fill="#98440f" font-family="-apple-system,BlinkMacSystemFont,Segoe UI,sans-serif" font-size="18" font-weight="800">report.html</text>
  <text x="198" y="609" fill="#5d6674" font-family="-apple-system,BlinkMacSystemFont,Segoe UI,sans-serif" font-size="18">notes.txt</text>
  <path d="M426 596h102" stroke="#d96c21" stroke-width="18" stroke-linecap="round"/>
  <path d="M508 548l48 48-48 48" fill="none" stroke="#d96c21" stroke-width="18" stroke-linecap="round" stroke-linejoin="round"/>
  <rect x="544" y="284" width="230" height="624" rx="34" fill="#111418"/>
  <rect x="562" y="322" width="194" height="548" rx="24" fill="#ffffff"/>
  <circle cx="612" cy="372" r="22" fill="#d96c21"/>
  <text x="646" y="380" fill="#16181d" font-family="-apple-system,BlinkMacSystemFont,Segoe UI,sans-serif" font-size="18" font-weight="850">Html Preview</text>
  <rect x="590" y="438" width="138" height="26" rx="13" fill="#e8edf4"/>
  <rect x="590" y="490" width="138" height="26" rx="13" fill="#e8edf4"/>
  <rect x="590" y="542" width="112" height="26" rx="13" fill="#e8edf4"/>
  <rect x="590" y="626" width="138" height="122" rx="18" fill="#fff4ea" stroke="#f0c6a7"/>
  <text x="614" y="682" fill="#98440f" font-family="-apple-system,BlinkMacSystemFont,Segoe UI,sans-serif" font-size="22" font-weight="850">HTML</text>
  <text x="126" y="1004" fill="#16181d" font-family="-apple-system,BlinkMacSystemFont,Segoe UI,sans-serif" font-size="30" font-weight="850">Share Sheet friendly</text>
  <text x="126" y="1044" fill="#5d6674" font-family="-apple-system,BlinkMacSystemFont,Segoe UI,sans-serif" font-size="22">Open real .html, .htm, and .xhtml files on iOS.</text>
</svg>
